<svg width="51" height="51" viewBox="0 0 51 51" fill="none" xmlns="http://www.w3.org/2000/svg">
<circle cx="25.5" cy="25.5" r="25.5" fill="#E2C37F"/>
<circle cx="25.5" cy="25.5" r="23.5" fill="#1A1C27"/>
<path d="M35.8066 25.9014L35.8096 25.9004C35.9245 26.1016 36.0353 26.2951 36.1475 26.4863C36.4609 27.0207 36.7689 27.5378 37.1416 28.2158C37.6883 29.2105 37.9748 29.7659 38.5195 30.7783C39.0333 31.7333 39.3257 32.381 39.917 33.374C40.3336 34.0738 40.5893 34.6132 41.1875 35.3467C41.7216 36.0016 42.0791 36.3829 42.7734 36.9189C43.0062 37.0986 43.212 37.246 43.4131 37.3779C39.561 43.1694 32.977 46.9873 25.5 46.9873C25.1645 46.9873 24.8308 46.9781 24.499 46.9629C24.5118 46.7983 24.5315 46.6225 24.5586 46.4209C24.6562 45.6949 24.7715 45.3087 25.043 44.5938C25.3269 43.8461 25.5676 43.5203 26.0225 42.707C26.5698 41.7286 26.9113 41.2694 27.5381 40.2549C28.1307 39.2958 28.4826 38.7455 29.0742 37.7686C29.4886 37.0842 29.7949 36.5364 30.0957 36.0068C30.3585 35.5442 30.6222 35.0907 30.96 34.5518C30.9803 34.5199 31.0038 34.4824 31.0293 34.4424C31.1095 34.3164 31.2078 34.1597 31.2832 34.041C31.3207 33.9821 31.3532 33.9323 31.374 33.8994C31.3793 33.8911 31.3845 33.8835 31.3887 33.877C31.3879 33.8778 31.3859 33.8792 31.3848 33.8809C31.3872 33.877 31.3893 33.874 31.3906 33.8721C31.3932 33.868 31.3956 33.8642 31.3975 33.8613C31.3987 33.8594 31.4006 33.8564 31.4023 33.8535C31.4032 33.8521 31.406 33.8484 31.4082 33.8447C31.4093 33.8429 31.4116 33.8391 31.4141 33.835C31.4156 33.8323 31.423 33.8186 31.4316 33.8018C31.4385 33.7881 31.4602 33.7397 31.4736 33.7041C31.4774 33.6828 31.4749 33.6574 31.4697 33.6289L35.8047 25.8984L35.8066 25.9014ZM29.1885 34.5781L29.1279 34.6787L29.1299 34.6807C29.0131 34.8807 28.9005 35.0729 28.791 35.2656C28.485 35.8045 28.1919 36.3301 27.791 36.9922C27.2031 37.963 26.866 38.4888 26.2617 39.4668C25.6919 40.3891 25.2779 40.9663 24.7139 41.9746C24.3163 42.6854 23.9766 43.1769 23.6406 44.0615C23.3406 44.8517 23.1892 45.3522 23.0723 46.2217C23.0419 46.4479 23.0189 46.6503 23.0039 46.8418C15.7236 46 9.55131 41.5233 6.35059 35.2715C6.42433 35.2371 6.50112 35.1998 6.58398 35.1631C7.25368 34.8666 7.64237 34.7618 8.39355 34.6191C9.17936 34.4699 9.58351 34.5046 10.5146 34.4668C11.6344 34.4214 12.2044 34.4721 13.3965 34.4756C14.5239 34.4789 15.1772 34.4912 16.3193 34.4844C17.1194 34.4796 17.7467 34.4543 18.3555 34.4336C18.8872 34.4155 19.4119 34.4033 20.0479 34.4092C20.0856 34.4098 20.1295 34.4094 20.1768 34.4102C20.326 34.4126 20.5107 34.4148 20.6514 34.417C20.7215 34.4181 20.7813 34.4194 20.8203 34.4199C20.83 34.4201 20.839 34.4208 20.8467 34.4209C20.8455 34.4206 20.8436 34.42 20.8418 34.4199C20.8465 34.42 20.8502 34.4208 20.8525 34.4209H20.8955C20.898 34.4208 20.9143 34.4204 20.9336 34.4189C20.949 34.4176 21.0018 34.4105 21.0391 34.4033C21.059 34.3954 21.0792 34.3805 21.1006 34.3613L29.5195 34.0293C29.4021 34.2209 29.292 34.402 29.1885 34.5781ZM6.82422 14.8271C7.02041 15.0022 7.21464 15.1944 7.4541 15.4482C8.00277 16.0299 8.19048 16.3892 8.72363 17.1533C9.36509 18.0727 9.62936 18.5803 10.2686 19.5869C10.8728 20.5386 11.2143 21.0952 11.835 22.0537C12.2699 22.7253 12.6294 23.2404 12.9746 23.7422C13.2761 24.1804 13.5689 24.6154 13.9062 25.1543C13.9261 25.1865 13.9497 25.2243 13.9746 25.2646C14.0529 25.3917 14.1507 25.5483 14.2246 25.668C14.2614 25.7275 14.2929 25.7784 14.3135 25.8115C14.3187 25.8199 14.323 25.8283 14.3271 25.835C14.3267 25.8341 14.3262 25.8319 14.3252 25.8301C14.3275 25.8339 14.3289 25.8369 14.3301 25.8389C14.3326 25.8429 14.3351 25.8467 14.3369 25.8496C14.3381 25.8516 14.34 25.8545 14.3418 25.8574C14.3427 25.8588 14.3453 25.8626 14.3477 25.8662C14.3488 25.868 14.3508 25.872 14.3535 25.876C14.3553 25.8786 14.3638 25.8912 14.375 25.9062C14.3841 25.9182 14.419 25.9596 14.4453 25.9873C14.4629 25.9999 14.4868 26.0089 14.5146 26.0166L19.3115 32.9102C19.2392 32.9111 19.1679 32.9117 19.0977 32.9131L18.9814 32.9141L18.9805 32.917C18.7489 32.9222 18.5262 32.927 18.3047 32.9346C17.6854 32.9556 17.0835 32.9807 16.3096 32.9854C15.1749 32.9922 14.5507 32.9799 13.4014 32.9766C12.3169 32.9734 11.6079 32.9219 10.4531 32.9688C9.63934 33.0018 9.04315 32.9689 8.11328 33.1455C7.28306 33.3032 6.77755 33.4359 5.97559 33.791C5.88352 33.8318 5.7974 33.874 5.71387 33.9131C4.61062 31.3257 4 28.4778 4 25.4873C4 21.6083 5.02693 17.9691 6.82422 14.8271ZM24.6777 4.00391C24.6185 4.31849 24.5356 4.62102 24.4082 5.02832C24.1695 5.7917 23.9485 6.13166 23.543 6.9707C23.0551 7.98005 22.7417 8.45882 22.1768 9.50879C21.6425 10.5016 21.3232 11.0715 20.791 12.082C20.4182 12.79 20.1456 13.3557 19.877 13.9023C19.6423 14.3798 19.4064 14.8482 19.1016 15.4062C19.0832 15.4393 19.0621 15.4781 19.0391 15.5195C18.9666 15.6499 18.8778 15.8116 18.8096 15.9346C18.7755 15.9959 18.7464 16.0489 18.7275 16.083C18.7228 16.0915 18.7176 16.0987 18.7139 16.1055C18.7146 16.1046 18.7158 16.1031 18.7168 16.1016C18.7146 16.1054 18.7131 16.1084 18.7119 16.1104C18.7095 16.1147 18.7068 16.119 18.7051 16.1221C18.704 16.1241 18.7027 16.127 18.7012 16.1299C18.7004 16.1313 18.6983 16.1349 18.6963 16.1387C18.6953 16.1405 18.6936 16.1442 18.6914 16.1484C18.6903 16.1507 18.6826 16.1649 18.6748 16.1826C18.6689 16.1964 18.65 16.2467 18.6387 16.2832C18.6362 16.3047 18.6405 16.3302 18.6475 16.3584L15.79 22.2529L14.8604 23.8633C14.7902 23.7556 14.7229 23.6503 14.6553 23.5488L14.5918 23.4512L14.5898 23.4521C14.4607 23.2597 14.3366 23.0743 14.2109 22.8916C13.8597 22.3811 13.5144 21.8879 13.0938 21.2383C12.4769 20.2857 12.1514 19.7527 11.5352 18.7822C10.9539 17.8668 10.6144 17.2427 9.95312 16.2949C9.48711 15.627 9.19343 15.1074 8.54395 14.4189C8.20732 14.0621 7.93582 13.794 7.625 13.5361C11.34 7.99075 17.5671 4.2713 24.6777 4.00391ZM26.1992 4C33.5682 4.23546 39.9996 8.17835 43.6914 14.0254C43.0762 14.2882 42.6897 14.3899 41.9736 14.5225C41.1873 14.6681 40.7835 14.6315 39.8525 14.665C38.7322 14.7054 38.162 14.6525 36.9697 14.6436C35.8423 14.6351 35.189 14.6194 34.0469 14.6211C33.2469 14.6223 32.6195 14.6452 32.0107 14.6631C31.479 14.6787 30.9542 14.6885 30.3184 14.6797C30.2807 14.6789 30.2367 14.6787 30.1895 14.6777C30.0402 14.6746 29.8555 14.6718 29.7148 14.6689C29.6447 14.6675 29.5849 14.6658 29.5459 14.665C29.5362 14.6649 29.5272 14.6642 29.5195 14.6641C29.5207 14.6644 29.5226 14.6649 29.5244 14.665C29.5197 14.6649 29.516 14.6651 29.5137 14.665C29.5088 14.665 29.5044 14.6641 29.501 14.6641H29.4707C29.4682 14.6641 29.452 14.6647 29.4326 14.666C29.4172 14.6673 29.3645 14.6736 29.3271 14.6807C29.307 14.6885 29.2863 14.7034 29.2646 14.7227L22.4385 14.9609H21.0244C21.092 14.827 21.1589 14.6952 21.2236 14.5635C21.4968 14.0076 21.7577 13.4657 22.1182 12.7812C22.647 11.7771 22.9524 11.2319 23.4971 10.2197C24.0109 9.26483 24.3897 8.66348 24.8926 7.62305C25.247 6.88969 25.5573 6.37897 25.8398 5.47559C26.0154 4.91406 26.1257 4.49679 26.1992 4Z" fill="white"/>
<path d="M31.3675 23.5827C31.667 23.7803 31.667 24.2197 31.3675 24.4173L22.2754 30.4166C21.9429 30.6359 21.5 30.3975 21.5 29.9993V18.0007C21.5 17.6025 21.9429 17.3641 22.2754 17.5834L31.3675 23.5827Z" fill="#E2C37F"/>
<circle cx="42.25" cy="24.25" r="1.25" fill="#E2C37F"/>
<circle cx="8.25" cy="24.25" r="1.25" fill="#1A1C27"/>
</svg>
